<?xml version="1.0" standalone="no"?><!DOCTYPE svg PUBLIC "-//W3C//DTD SVG 1.1//EN" "http://www.w3.org/Graphics/SVG/1.1/DTD/svg11.dtd"><svg t="1724178214202" class="icon" viewBox="0 0 1024 1024" version="1.1" xmlns="http://www.w3.org/2000/svg" p-id="7297" xmlns:xlink="http://www.w3.org/1999/xlink" width="200" height="200"><path d="M512 110.16475283c221.65665508 0 401.83524717 180.17859209 401.83524717 401.83524717S733.65665508 913.83524717 512 913.83524717 110.16475283 733.65665508 110.16475283 512 290.34334492 110.16475283 512 110.16475283m0-44.64836079c-246.49065458 0-446.48360796 199.99295339-446.48360796 446.48360796s199.99295339 446.48360796 446.48360796 446.48360796 446.48360796-199.99295339 446.48360796-446.48360796S758.49065458 65.51639204 512 65.51639204z" p-id="7298"></path><path d="M512 512m-267.89016477 0a267.89016477 267.89016477 0 1 0 535.78032954 0 267.89016477 267.89016477 0 1 0-535.78032954 0Z" p-id="7299"></path></svg>