<?xml version="1.0" standalone="no"?><!DOCTYPE svg PUBLIC "-//W3C//DTD SVG 1.1//EN" "http://www.w3.org/Graphics/SVG/1.1/DTD/svg11.dtd"><svg t="1725511151287" class="icon" viewBox="0 0 1024 1024" version="1.1" xmlns="http://www.w3.org/2000/svg" p-id="2878" xmlns:xlink="http://www.w3.org/1999/xlink" width="200" height="200"><path d="M512 1018.88c-279.552 0-506.88-227.328-506.88-506.88S232.448 5.12 512 5.12s506.88 227.328 506.88 506.88-227.328 506.88-506.88 506.88z m0-962.56c-251.392 0-455.68 204.288-455.68 455.68s204.288 455.68 455.68 455.68 455.68-204.288 455.68-455.68-204.288-455.68-455.68-455.68z" fill="#2c2c2c" p-id="2879"></path><path d="M783.872 587.776c-70.656 0-128-57.344-128-128s57.344-128 128-128 128 57.344 128 128-57.344 128-128 128z m0-204.8c-42.496 0-76.8 34.304-76.8 76.8s34.304 76.8 76.8 76.8 76.8-34.304 76.8-76.8-34.304-76.8-76.8-76.8zM421.888 425.472C330.752 425.472 256 351.232 256 259.584s74.24-165.888 165.888-165.888 165.888 74.24 165.888 165.888-74.24 165.888-165.888 165.888z m0-256c-49.664 0-90.112 40.448-90.112 90.112s40.448 90.112 90.112 90.112S512 309.248 512 259.584s-39.936-90.112-90.112-90.112zM345.088 802.816c-56.32 0-102.4-46.08-102.4-102.4s46.08-102.4 102.4-102.4 102.4 46.08 102.4 102.4-45.568 102.4-102.4 102.4z m0-153.6c-28.16 0-51.2 23.04-51.2 51.2s23.04 51.2 51.2 51.2 51.2-23.04 51.2-51.2-23.04-51.2-51.2-51.2z" fill="#2c2c2c" p-id="2880"></path><path d="M681.472 771.584m-25.6 0a25.6 25.6 0 1 0 51.2 0 25.6 25.6 0 1 0-51.2 0Z" fill="#2c2c2c" p-id="2881"></path><path d="M559.616 674.816m-25.6 0a25.6 25.6 0 1 0 51.2 0 25.6 25.6 0 1 0-51.2 0Z" fill="#2c2c2c" p-id="2882"></path><path d="M193.536 508.416m-20.48 0a20.48 20.48 0 1 0 40.96 0 20.48 20.48 0 1 0-40.96 0Z" fill="#2c2c2c" p-id="2883"></path><path d="M406.528 852.992m-15.36 0a15.36 15.36 0 1 0 30.72 0 15.36 15.36 0 1 0-30.72 0Z" fill="#2c2c2c" p-id="2884"></path></svg>