<?xml version="1.0" standalone="no"?><!DOCTYPE svg PUBLIC "-//W3C//DTD SVG 1.1//EN" "http://www.w3.org/Graphics/SVG/1.1/DTD/svg11.dtd"><svg t="1744189278958" class="icon" viewBox="0 0 1024 1024" version="1.1" xmlns="http://www.w3.org/2000/svg" p-id="7241" xmlns:xlink="http://www.w3.org/1999/xlink" width="200" height="200"><path d="M512.001 95C741.914 95 929 282.066 929 511.981l-0.056 6.885C925.254 745.656 739.614 929 512 929l-6.885-0.056a421.737 421.737 0 0 1-8.117-0.21l0.003-194.88c4.991 0.335 9.994 0.502 14.999 0.501l3.672-0.03c120.915-1.967 218.664-100.968 218.664-222.344l-0.03-3.67C732.34 387.41 633.377 289.645 512 289.645l-3.67 0.03c-120.9 1.967-218.685 100.948-218.685 222.306 0 5.844 0.227 11.636 0.672 17.368l-0.654 334.466c36.372 23.13 76.53 40.762 119.337 51.754l-0.004 0.559C228.713 870.154 95 706.394 95 511.98l0.056-6.885C98.746 278.344 284.366 95 512.001 95z" fill="#000000" p-id="7242"></path><path d="M490.998 314.216L491 928c-71.394-4.827-137.861-27.607-195-63.92l0.658-334.223c8.1-111.3 90.09-201.077 194.34-215.64z" fill="#000000" p-id="7243"></path></svg>