<?xml version="1.0" standalone="no"?><!DOCTYPE svg PUBLIC "-//W3C//DTD SVG 1.1//EN" "http://www.w3.org/Graphics/SVG/1.1/DTD/svg11.dtd"><svg t="1724178289856" class="icon" viewBox="0 0 1026 1024" version="1.1" xmlns="http://www.w3.org/2000/svg" p-id="9214" xmlns:xlink="http://www.w3.org/1999/xlink" width="200.390625" height="200"><path d="M932.293579 402.582543c-29.538518-8.988657-58.522871 5.628079-75.681648 17.407898a14.937034 14.937034 0 0 0-6.182244-1.301526 29.945244 29.945244 0 0 0-12.979662 3.045366c-11.215485-25.628859-25.547513-49.544381-42.319901-71.492365h2.282753s22.146262-38.247551 42.274144-56.372303c20.127882-18.114585 120.79271-52.340627 60.393813-106.69455-60.393813-54.353923-82.534991 56.36722-82.534991 72.468508 0 16.106373-30.194364 58.3856-30.194364 58.3856l-11.256158 9.47673c-21.337893-23.493544-45.700815-44.195927-72.717629-61.151341a33.148216 33.148216 0 0 0 0.767697-6.710989c0-25.56785-34.927645-50.993345-65.767688-44.963623-30.834959 6.029722-28.491197 2.165819-39.498235 8.007429-1.13375-0.269456-2.298005-0.452483-3.436839-0.706687-13.310127-51.445828-42.080949-100.15642-43.62651-123.324583-2.013297-30.194364 18.114585-112.734439-50.332414-96.628067-68.446999 16.101288-32.207661 58.380516-24.154475 72.473593 8.048102 14.087992 54.67422 12.013686 64.735619 64.359397 6.324598 32.883844 12.384824 44.201011 13.254203 76.510353a343.948331 343.948331 0 0 0-36.386777-2.023465 346.063309 346.063309 0 0 0-155.771195 36.874849 29.16738 29.16738 0 0 0-13.335548-3.319906c-0.696519 0-1.347282 0.157607-2.038717 0.203363-18.760263-27.886191-40.677742-61.369957-40.93703-65.971051-0.447399-8.053186-20.021116-106.699634-44.460299-112.739523s-64.70003 14.093076-60.673437 48.319117c4.026593 34.220957 58.380516 74.481805 70.460295 84.548288 6.934688 5.775517 31.953457 36.066479 52.030498 60.841212a29.263977 29.263977 0 0 0-3.838482 13.594836c-48.959712 34.14978-88.513872 80.65388-114.605382 134.901038-28.547122-23.996868-85.580356-64.796628-129.059427-50.30191-60.393813 20.143134-118.774329 88.590133-28.186152 110.731311 27.56081 4.697692 39.742271-38.247551 64.166202-38.247551 14.535391 0 51.089942 7.132967 78.29995 12.908485a345.310865 345.310865 0 0 0-13.838872 52.162684c-16.080952 2.37935-28.633551 20.178722-28.633551 42.04536 0 19.426278 9.929213 35.629248 23.402031 40.71333 1.240516 22.24286 4.728196 43.860377 9.954633 64.791544l-0.081346 0.162691c-9.669924 21.536172-64.822048 85.163461-80.923337 97.268661-16.106373 12.1052 14.087992 66.408282 32.207661 68.421579 18.114585 2.013297 38.247551-48.314033 38.247551-70.460296 0-13.843956 14.164253-36.346104 24.784901-51.267885 32.873676 82.473982 96.262013 149.472018 176.387149 186.753593-6.995697 24.190063-17.479075 57.577231-22.751268 79.220169-8.088775 33.204141 35.934293 74.649579 54.262409 67.699639 21.998824-8.332811 32.553379-35.751266 13.152521-54.979265-14.789595-14.667577-9.105591-47.205704-4.34689-76.261234a347.075042 347.075042 0 0 0 106.114964 16.594445 346.292093 346.292093 0 0 0 129.588172-25.039105c6.710989 13.62534 10.854516 26.772777 6.334766 36.696905-9.156432 20.092293 6.680484 37.789983 25.689868 37.789983 15.847084 0 37.245986-43.936639 21.622602-66.713327-4.804458-7.005865-11.251074-15.674226-17.997651-24.581537a348.849386 348.849386 0 0 0 92.698071-72.773553c1.525225 0.310129 3.106374 0.47282 4.712944 0.49824 15.165817 28.841998 42.899486 66.3066 32.309343 89.54594-11.327335 24.856078 8.261634 46.75322 31.785682 46.75322 19.599137 0 46.077037-54.353923 26.747356-82.540075-18.053576-26.325378-54.714893-71.482196-64.059436-86.69377a29.33007 29.33007 0 0 0-1.52014-5.739929 346.856426 346.856426 0 0 0 32.833003-60.775119h0.066093c16.157213-3.533437 66.382862 33.732886 120.741869 37.759479 54.353923 4.026593 26.167771-54.359007 0-74.486889-26.172855-20.132966-103.12044-17.682438-103.12044-17.682438h-0.010168a348.452828 348.452828 0 0 0 9.181852-79.621812c0-8.495501-0.411811-16.884237-1.006648-25.222131 15.506451-8.810715 16.823228-35.049663 8.775126-56.433313-3.18772-8.470081-4.001173-19.726239-5.231521-30.25029 10.061399-4.438404 20.743055-8.734453 29.004689-12.547514 18.119669-8.363315 48.319118-1.708252 60.398897 10.371527 12.074695 12.079779 36.234254 38.247551 52.340627 20.127882 16.106373-18.109501-32.207661-50.322246-78.513482-64.415322z m-476.886913 127.808743c-12.710206 23.035977-62.473202 19.944855-111.148206-6.899099-48.675003-26.849038-77.832215-67.292912-65.127093-90.333973 12.710206-23.046145 62.473202-19.955023 111.148205 6.894015 48.675003 26.849038 77.832215 67.292912 65.127094 90.339057z m243.563127-6.904184c-48.675003 26.849038-98.438 29.935076-111.15329 6.8991-12.705121-23.046145 16.45209-63.490019 65.127094-90.339057 48.680087-26.849038 98.438-29.94016 111.15329-6.894016 12.705121 23.041061-16.45209 63.484935-65.127094 90.333973z" fill="#2c2c2c" p-id="9215"></path></svg>